<?xml version="1.0" standalone="no"?>
<!DOCTYPE svg PUBLIC "-//W3C//DTD SVG 20010904//EN"
 "http://www.w3.org/TR/2001/REC-SVG-20010904/DTD/svg10.dtd">
<svg version="1.0" xmlns="http://www.w3.org/2000/svg"
 width="1536.000000pt" height="1024.000000pt" viewBox="0 0 1536.000000 1024.000000"
 preserveAspectRatio="xMidYMid meet">

<g transform="translate(0.000000,1024.000000) scale(0.100000,-0.100000)"
fill="#000000" stroke="none">
<path d="M4718 6303 c34 -2 90 -2 125 0 34 2 6 3 -63 3 -69 0 -97 -1 -62 -3z"/>
<path d="M6313 6303 c37 -2 96 -2 130 0 34 2 4 3 -68 3 -71 0 -99 -1 -62 -3z"/>
<path d="M4565 6290 c-42 -11 -1 -11 50 -1 34 7 35 9 10 9 -16 0 -43 -4 -60
-8z"/>
<path d="M4938 6293 c12 -2 30 -2 40 0 9 3 -1 5 -23 4 -22 0 -30 -2 -17 -4z"/>
<path d="M6208 6293 c6 -2 18 -2 25 0 6 3 1 5 -13 5 -14 0 -19 -2 -12 -5z"/>
<path d="M6528 6293 c12 -2 30 -2 40 0 9 3 -1 5 -23 4 -22 0 -30 -2 -17 -4z"/>
<path d="M5008 6283 c6 -2 18 -2 25 0 6 3 1 5 -13 5 -14 0 -19 -2 -12 -5z"/>
<path d="M6158 6283 c6 -2 18 -2 25 0 6 3 1 5 -13 5 -14 0 -19 -2 -12 -5z"/>
<path d="M6635 6275 c63 -18 81 -18 35 0 -19 7 -46 14 -60 14 -14 0 -4 -6 25
-14z"/>
<path d="M7470 5530 l0 -760 580 0 580 0 0 160 0 160 -385 0 -385 0 0 600 0
600 -195 0 -195 0 0 -760z m380 150 l0 -600 385 0 385 0 0 -150 0 -150 -570 0
-570 0 0 750 0 750 185 0 185 0 0 -600z"/>
<path d="M9310 6278 c0 -7 46 -71 101 -143 55 -71 179 -235 275 -362 97 -128
178 -233 181 -233 3 0 1 6 -4 13 -5 6 -108 143 -228 302 -120 160 -235 310
-255 335 -20 25 -42 55 -49 68 l-12 22 209 0 208 0 179 -240 c99 -132 182
-240 185 -240 7 0 101 118 235 295 54 72 110 142 124 158 l25 27 198 0 c109 0
198 -3 198 -6 0 -3 -10 -20 -22 -37 -17 -24 -18 -28 -4 -18 9 8 24 27 32 43
l15 28 -215 0 -214 0 -138 -181 c-77 -99 -157 -205 -179 -234 -22 -30 -44 -54
-50 -54 -11 -1 -134 157 -312 400 -18 24 -37 50 -43 57 -8 9 -66 12 -225 12
-166 0 -215 -3 -215 -12z"/>
<path d="M4508 6273 c7 -3 16 -2 19 1 4 3 -2 6 -13 5 -11 0 -14 -3 -6 -6z"/>
<path d="M5058 6273 c7 -3 16 -2 19 1 4 3 -2 6 -13 5 -11 0 -14 -3 -6 -6z"/>
<path d="M6118 6273 c7 -3 16 -2 19 1 4 3 -2 6 -13 5 -11 0 -14 -3 -6 -6z"/>
<path d="M4391 6234 c-97 -48 -186 -132 -223 -209 -15 -33 -28 -69 -27 -80 0
-11 6 -2 13 20 40 125 135 220 284 281 31 13 50 24 41 24 -9 0 -49 -16 -88
-36z"/>
<path d="M5105 6260 c11 -5 27 -9 35 -9 9 0 8 4 -5 9 -11 5 -27 9 -35 9 -9 0
-8 -4 5 -9z"/>
<path d="M6010 6242 c-137 -59 -272 -169 -353 -287 -43 -63 -107 -206 -107
-240 0 -11 13 17 29 63 40 115 83 183 176 278 84 85 177 147 288 189 34 13 55
24 47 24 -8 0 -44 -12 -80 -27z"/>
<path d="M5189 6235 c18 -8 36 -15 40 -15 13 1 -45 29 -59 29 -8 0 0 -6 19
-14z"/>
<path d="M6814 6208 c160 -81 276 -193 348 -333 23 -46 44 -82 46 -80 2 2 -15
39 -37 82 -76 145 -183 251 -332 328 -48 25 -91 45 -96 45 -4 -1 28 -19 71
-42z"/>
<path d="M5241 6216 c2 -2 15 -9 29 -15 24 -11 24 -11 6 3 -16 13 -49 24 -35
12z"/>
<path d="M10757 6103 c-116 -147 -426 -557 -427 -563 0 -3 16 -23 36 -45 l36
-40 -32 43 -33 43 32 39 c17 21 86 112 154 202 68 90 159 209 203 266 111 145
116 152 111 152 -2 0 -38 -44 -80 -97z"/>
<path d="M5306 6173 c3 -10 -14 -63 -36 -117 -22 -54 -39 -101 -37 -103 5 -4
87 198 87 214 0 7 -4 14 -9 17 -5 4 -7 -2 -5 -11z"/>
<path d="M4796 6001 c170 -20 180 -21 149 -11 -16 5 -73 12 -125 14 -89 5 -90
4 -24 -3z"/>
<path d="M4635 5990 c-13 -6 -2 -7 30 -3 28 3 52 7 54 9 9 8 -65 2 -84 -6z"/>
<path d="M6388 5993 c6 -2 18 -2 25 0 6 3 1 5 -13 5 -14 0 -19 -2 -12 -5z"/>
<path d="M6219 5967 c-88 -30 -171 -94 -220 -170 -58 -90 -74 -151 -74 -287 0
-103 3 -122 28 -182 47 -110 160 -217 257 -242 14 -4 -3 7 -38 24 -114 57
-203 169 -231 291 -24 104 -6 260 40 352 43 83 153 178 243 207 21 7 62 16 90
20 49 7 49 8 11 8 -22 1 -70 -9 -106 -21z"/>
<path d="M6443 5983 c9 -2 25 -2 35 0 9 3 1 5 -18 5 -19 0 -27 -2 -17 -5z"/>
<path d="M4549 5957 c-100 -67 -63 -178 74 -219 77 -24 247 -61 252 -56 3 3
-41 15 -97 27 -122 27 -195 49 -226 69 -26 17 -52 62 -52 91 0 27 46 79 84 96
17 7 24 14 15 14 -9 1 -31 -9 -50 -22z"/>
<path d="M4988 5973 c7 -3 16 -2 19 1 4 3 -2 6 -13 5 -11 0 -14 -3 -6 -6z"/>
<path d="M6546 5961 c139 -50 232 -139 282 -271 12 -30 21 -49 21 -43 3 56
-101 213 -173 261 -40 27 -144 72 -166 71 -8 0 8 -9 36 -18z"/>
<path d="M5035 5961 c47 -20 161 -61 172 -61 6 0 14 7 17 16 10 26 7 29 -8 9
-13 -18 -15 -17 -77 7 -61 24 -150 49 -104 29z"/>
<path d="M4133 5845 c0 -44 2 -61 4 -37 2 23 2 59 0 80 -2 20 -4 1 -4 -43z"/>
<path d="M8780 5325 l0 -555 190 0 190 0 0 555 0 555 -190 0 -190 0 0 -555z
m370 0 l0 -545 -180 0 -180 0 0 545 0 545 180 0 180 0 0 -545z"/>
<path d="M7211 5775 c1 -19 18 -51 18 -35 0 8 -4 22 -9 30 -5 8 -9 11 -9 5z"/>
<path d="M4141 5739 c-3 -67 103 -210 187 -253 47 -24 39 -12 -11 17 -78 46
-146 137 -166 224 -7 30 -9 33 -10 12z"/>
<path d="M7231 5704 c0 -11 3 -14 6 -6 3 7 2 16 -1 19 -3 4 -6 -2 -5 -13z"/>
<path d="M5542 5665 c0 -16 2 -22 5 -12 2 9 2 23 0 30 -3 6 -5 -1 -5 -18z"/>
<path d="M4898 5673 c7 -3 16 -2 19 1 4 3 -2 6 -13 5 -11 0 -14 -3 -6 -6z"/>
<path d="M7242 5655 c0 -16 2 -22 5 -12 2 9 2 23 0 30 -3 6 -5 -1 -5 -18z"/>
<path d="M4975 5654 c28 -7 55 -13 60 -13 17 2 -69 27 -90 27 -11 0 3 -6 30
-14z"/>
<path d="M5090 5620 c8 -5 22 -9 30 -9 10 0 8 3 -5 9 -27 12 -43 12 -25 0z"/>
<path d="M5534 5530 c0 -58 1 -81 3 -52 2 28 2 76 0 105 -2 28 -3 5 -3 -53z"/>
<path d="M6858 5550 c2 -47 6 -87 8 -89 7 -8 2 114 -6 144 -4 17 -5 -8 -2 -55z"/>
<path d="M5140 5606 c0 -2 20 -14 45 -26 70 -34 150 -113 184 -182 17 -34 31
-55 31 -47 0 28 -59 115 -112 165 -57 54 -148 109 -148 90z"/>
<path d="M7254 5515 c0 -55 1 -76 3 -47 2 29 2 74 0 100 -2 26 -3 2 -3 -53z"/>
<path d="M9829 5466 c-26 -33 -131 -171 -235 -306 -276 -360 -284 -370 -284
-381 0 -5 88 -9 219 -9 l220 0 167 223 c91 122 175 230 184 241 18 18 18 18
29 -2 6 -11 17 -26 24 -34 6 -7 58 -74 114 -148 56 -74 126 -166 156 -205 l54
-70 221 -3 c126 -1 222 1 222 7 0 5 -8 15 -17 22 -16 13 -17 12 -4 -3 13 -17
2 -18 -200 -18 l-214 0 -26 33 c-15 18 -97 126 -183 240 -87 114 -160 207
-163 207 -7 0 2 12 -198 -254 l-170 -226 -212 0 c-117 0 -213 2 -213 4 0 2 48
67 108 144 59 76 157 204 217 282 159 206 237 312 233 315 -2 1 -24 -25 -49
-59z"/>
<path d="M4390 5456 c34 -21 199 -74 252 -81 24 -3 3 5 -47 19 -49 13 -112 33
-140 44 -81 32 -93 35 -65 18z"/>
<path d="M6847 5410 c-25 -155 -161 -291 -335 -335 -46 -12 -49 -14 -15 -10
105 13 216 79 282 169 42 57 84 164 79 200 -2 12 -7 2 -11 -24z"/>
<path d="M10406 5439 c253 -333 475 -619 480 -619 5 0 -46 70 -120 165 -30 39
-121 157 -202 263 -80 105 -151 195 -158 199 -8 5 -8 3 0 -8z"/>
<path d="M5542 5385 c0 -16 2 -22 5 -12 2 9 2 23 0 30 -3 6 -5 -1 -5 -18z"/>
<path d="M7242 5385 c0 -16 2 -22 5 -12 2 9 2 23 0 30 -3 6 -5 -1 -5 -18z"/>
<path d="M4691 5366 c3 -4 113 -33 189 -51 20 -5 19 -3 -6 8 -41 19 -196 55
-183 43z"/>
<path d="M5551 5334 c0 -11 3 -14 6 -6 3 7 2 16 -1 19 -3 4 -6 -2 -5 -13z"/>
<path d="M7231 5334 c0 -11 3 -14 6 -6 3 7 2 16 -1 19 -3 4 -6 -2 -5 -13z"/>
<path d="M5401 5314 c0 -11 3 -14 6 -6 3 7 2 16 -1 19 -3 4 -6 -2 -5 -13z"/>
<path d="M4942 5291 c45 -21 78 -49 78 -67 0 -7 4 -16 10 -19 16 -10 -1 28
-24 53 -12 13 -36 30 -55 38 -47 20 -54 16 -9 -5z"/>
<path d="M7198 5237 c-95 -251 -348 -445 -633 -486 -45 -6 -51 -9 -24 -10 85
-3 280 67 382 137 123 85 222 206 277 338 17 42 30 79 28 84 -2 5 -15 -23 -30
-63z"/>
<path d="M5413 5215 c0 -44 2 -61 4 -37 2 23 2 59 0 80 -2 20 -4 1 -4 -43z"/>
<path d="M5580 5246 c0 -12 29 -76 35 -76 3 0 -2 17 -10 37 -16 38 -25 52 -25
39z"/>
<path d="M4220 5190 c0 -6 4 -9 9 -5 5 3 45 -11 89 -30 103 -45 119 -45 22 1
-89 42 -120 51 -120 34z"/>
<path d="M4166 5063 c-25 -60 -46 -112 -46 -118 0 -5 23 41 50 104 28 63 48
116 46 118 -2 2 -24 -45 -50 -104z"/>
<path d="M5021 5158 c-1 -22 -52 -64 -97 -78 -19 -7 -77 -16 -127 -20 l-92 -9
97 4 c78 3 109 8 152 28 53 25 82 56 72 80 -2 7 -5 5 -5 -5z"/>
<path d="M5631 5138 c31 -59 105 -151 152 -190 46 -38 44 -34 -24 38 -42 45
-89 102 -104 128 -27 47 -46 65 -24 24z"/>
<path d="M5401 5115 c-3 -43 -53 -129 -109 -184 -58 -58 -121 -97 -217 -133
-29 -10 -37 -16 -20 -13 61 11 189 83 243 137 56 56 117 164 109 195 -4 16 -5
16 -6 -2z"/>
<path d="M4435 5111 c11 -4 36 -11 55 -15 24 -4 29 -3 15 3 -11 4 -36 11 -55
15 -24 4 -29 3 -15 -3z"/>
<path d="M4550 5080 c14 -4 36 -8 50 -8 22 0 22 1 -5 8 -16 4 -39 8 -50 8 -16
0 -15 -2 5 -8z"/>
<path d="M6255 5070 c19 -8 83 -14 74 -6 -2 2 -24 6 -49 9 -30 4 -38 3 -25 -3z"/>
<path d="M4648 5063 c12 -2 30 -2 40 0 9 3 -1 5 -23 4 -22 0 -30 -2 -17 -4z"/>
<path d="M6378 5053 c12 -2 32 -2 45 0 12 2 2 4 -23 4 -25 0 -35 -2 -22 -4z"/>
<path d="M4145 4909 c48 -32 106 -61 113 -55 3 3 1 6 -4 6 -6 0 -36 16 -68 35
-64 38 -89 47 -41 14z"/>
<path d="M5847 4899 c12 -15 73 -53 73 -46 0 2 -19 17 -42 32 -24 16 -38 22
-31 14z"/>
<path d="M4270 4847 c0 -19 256 -88 319 -86 14 0 -10 7 -54 15 -67 12 -205 51
-252 70 -7 3 -13 3 -13 1z"/>
<path d="M5930 4845 c0 -10 122 -62 160 -69 20 -3 7 4 -30 17 -36 13 -80 31
-97 41 -18 9 -33 14 -33 11z"/>
<path d="M4976 4773 c-4 -4 -87 -10 -184 -14 l-177 -7 175 3 c96 2 189 7 205
13 23 8 25 10 9 11 -11 1 -24 -2 -28 -6z"/>
<path d="M6148 4759 c13 -5 49 -11 80 -14 l57 -5 -70 14 c-83 17 -99 18 -67 5z"/>
<path d="M6348 4733 c28 -2 76 -2 105 0 28 2 5 3 -53 3 -58 0 -81 -1 -52 -3z"/>
<path d="M4094 4445 c-3 -7 -1 -22 6 -32 10 -16 10 -16 5 4 -4 15 -1 22 12 25
17 3 17 4 0 11 -11 4 -20 2 -23 -8z"/>
<path d="M4378 4452 c-15 -3 -74 -129 -65 -138 2 -2 15 24 28 58 24 60 26 63
64 68 33 5 36 6 15 11 -14 2 -32 3 -42 1z"/>
<path d="M4976 4453 c-3 -4 -6 -24 -6 -45 l0 -38 50 0 50 0 0 -140 0 -140 45
0 45 0 0 140 0 140 55 0 55 0 0 40 0 40 -117 -2 -118 -2 113 -3 112 -4 0 -29
c0 -30 -1 -30 -55 -30 l-55 0 0 -140 0 -140 -35 0 -35 0 0 140 0 140 -50 0
-50 0 0 35 c0 26 3 33 15 29 8 -4 15 -4 15 -1 0 8 -28 16 -34 10z"/>
<path d="M8484 4451 c-2 -2 -4 -85 -4 -183 l0 -178 45 0 45 0 0 108 0 107 33
-47 c17 -26 36 -48 40 -48 4 0 -12 26 -35 57 l-43 57 -3 -112 -3 -112 -34 0
-35 0 0 173 0 173 38 -5 c34 -5 48 -17 115 -98 42 -50 81 -94 86 -98 8 -4 11
26 11 94 l0 101 32 0 c38 0 34 7 -7 12 l-30 3 -5 -100 -5 -100 -79 97 c-72 88
-81 96 -118 100 -21 2 -41 2 -44 -1z"/>
<path d="M8990 4444 c-19 -8 -45 -25 -58 -37 -26 -24 -56 -76 -49 -83 2 -3 10
9 16 25 7 16 22 38 34 50 76 71 237 66 274 -9 9 -17 13 -20 13 -8 0 61 -143
100 -230 62z"/>
<path d="M4175 4440 c3 -5 8 -10 11 -10 2 0 4 5 4 10 0 6 -5 10 -11 10 -5 0
-7 -4 -4 -10z"/>
<path d="M4436 4410 c-22 -56 -19 -65 5 -11 11 24 18 46 15 48 -2 2 -11 -14
-20 -37z"/>
<path d="M4480 4270 l0 -180 45 0 45 0 -2 133 -2 132 -3 -127 -4 -128 -34 0
-35 0 0 169 c0 153 2 170 18 174 13 4 11 5 -5 6 l-23 1 0 -180z"/>
<path d="M4640 4270 l0 -180 48 2 47 1 -42 4 -43 4 0 170 0 169 100 0 c63 0
113 -5 134 -14 77 -32 73 -170 -7 -199 -9 -3 -9 -8 1 -18 7 -8 12 -9 10 -3 -2
6 10 21 25 35 37 32 47 100 22 148 -24 48 -66 61 -190 61 l-105 0 0 -180z"/>
<path d="M5343 4443 c9 -2 23 -2 30 0 6 3 -1 5 -18 5 -16 0 -22 -2 -12 -5z"/>
<path d="M5394 4330 c0 -69 1 -97 3 -62 2 34 2 90 0 125 -2 34 -3 6 -3 -63z"/>
<path d="M5542 4333 l2 -118 3 112 4 112 42 4 42 4 -47 1 -48 2 2 -117z"/>
<path d="M5792 4425 c-17 -37 -14 -45 4 -12 9 16 14 31 11 33 -2 2 -9 -7 -15
-21z"/>
<path d="M5853 4443 c9 -2 23 -2 30 0 6 3 -1 5 -18 5 -16 0 -22 -2 -12 -5z"/>
<path d="M5911 4430 c14 -31 19 -36 19 -24 0 6 -7 19 -16 30 -14 18 -14 18 -3
-6z"/>
<path d="M6090 4270 l0 -180 135 0 135 0 0 40 0 40 -90 0 -89 0 -4 138 -3 137
1 -140 0 -140 88 -3 87 -3 0 -29 0 -30 -125 0 -125 0 0 169 c0 153 2 170 18
174 13 4 11 5 -5 6 l-23 1 0 -180z"/>
<path d="M6552 4273 l3 -178 105 -1 105 0 -102 3 -103 4 0 169 0 169 108 4
107 3 -113 2 -112 2 2 -177z"/>
<path d="M7108 4443 l52 -4 37 -80 c20 -44 38 -78 39 -76 2 2 -13 40 -33 85
l-37 82 -56 -2 -55 -2 53 -3z"/>
<path d="M7353 4443 c43 -2 110 -2 150 0 40 1 5 3 -78 3 -82 0 -115 -2 -72 -3z"/>
<path d="M7700 4429 c-7 -11 -10 -23 -7 -25 2 -2 9 7 15 21 14 30 7 33 -8 4z"/>
<path d="M7768 4443 c42 -4 43 -5 74 -74 17 -38 33 -68 35 -66 2 2 -11 36 -28
75 l-32 72 -46 -2 -46 -1 43 -4z"/>
<path d="M8144 4437 c-2 -7 -3 -58 -1 -113 l3 -99 2 107 2 107 128 4 127 3
-128 2 c-98 1 -129 -1 -133 -11z"/>
<path d="M8810 4275 l0 -175 -34 0 c-29 0 -42 9 -81 53 -48 54 -43 39 10 -26
26 -32 36 -37 73 -37 l42 0 0 180 c0 99 -2 180 -5 180 -3 0 -5 -79 -5 -175z"/>
<path d="M9280 4270 l0 -180 45 0 45 0 -2 173 -2 172 -3 -167 -3 -168 -35 0
-35 0 0 169 0 170 43 4 42 4 -47 1 -48 2 0 -180z"/>
<path d="M9440 4270 l0 -180 45 0 45 0 0 108 1 107 27 -30 c30 -34 20 -16 -16
29 -13 16 -23 23 -22 15 1 -8 2 -60 1 -116 l-1 -103 -35 0 -35 0 0 170 0 170
39 0 c30 0 44 -6 55 -22 9 -12 16 -18 16 -12 0 23 -38 44 -78 44 l-42 0 0
-180z"/>
<path d="M9688 4353 l-3 -98 -42 55 c-24 30 -50 64 -58 75 -8 11 -14 16 -15
10 0 -5 28 -44 63 -85 l62 -75 3 102 3 102 32 4 c31 4 31 4 -5 5 l-37 2 -3
-97z"/>
<path d="M10003 4443 l127 -4 0 -29 0 -30 -95 0 -95 0 0 -35 c0 -19 4 -35 8
-35 5 0 7 14 4 30 l-4 30 96 0 96 0 0 40 0 40 -132 -2 -133 -2 128 -3z"/>
<path d="M10200 4270 l0 -180 143 2 142 2 -137 3 -138 4 0 169 0 170 135 0
135 0 0 -30 0 -30 -100 0 -100 0 0 -35 0 -35 83 2 82 2 -77 3 c-75 4 -78 5
-78 28 0 24 2 24 98 27 l97 3 3 38 3 37 -145 0 -146 0 0 -180z"/>
<path d="M10540 4270 l0 -180 50 0 50 0 -2 38 c-1 36 -1 36 -5 5 -4 -31 -7
-33 -44 -33 l-39 0 0 170 0 169 108 4 107 3 -112 2 -113 2 0 -180z"/>
<path d="M6813 4419 c21 -11 47 -34 57 -52 11 -18 20 -27 20 -21 0 28 -77 95
-107 94 -4 -1 9 -10 30 -21z"/>
<path d="M4562 4400 c0 -19 2 -27 5 -17 2 9 2 25 0 35 -3 9 -5 1 -5 -18z"/>
<path d="M5622 4312 c-2 -131 -8 -153 -50 -191 -27 -24 -27 -24 -2 -9 51 31
61 64 57 199 l-3 124 -2 -123z"/>
<path d="M7046 4415 c-9 -26 -7 -32 5 -12 6 10 9 21 6 23 -2 3 -7 -2 -11 -11z"/>
<path d="M7281 4403 l-1 -33 58 2 57 2 -52 3 c-47 4 -52 6 -56 31 -4 25 -4 24
-6 -5z"/>
<path d="M7581 4414 c0 -11 3 -14 6 -6 3 7 2 16 -1 19 -3 4 -6 -2 -5 -13z"/>
<path d="M10816 4408 c10 -14 21 -24 23 -22 3 3 -6 15 -18 27 l-24 22 19 -27z"/>
<path d="M4110 4385 c0 -5 5 -17 10 -25 5 -8 10 -10 10 -5 0 6 -5 17 -10 25
-5 8 -10 11 -10 5z"/>
<path d="M4730 4372 c0 -4 17 -6 38 -4 58 5 62 10 10 11 -27 1 -48 -3 -48 -7z"/>
<path d="M5762 4355 c-17 -37 -14 -45 4 -12 9 16 14 31 11 33 -2 2 -9 -7 -15
-21z"/>
<path d="M6642 4278 l2 -103 3 98 4 97 35 0 c46 0 101 -26 110 -52 3 -11 8
-17 11 -15 2 3 -1 15 -7 27 -15 28 -68 50 -120 50 l-40 0 2 -102z"/>
<path d="M7470 4240 l0 -140 -39 0 c-22 0 -42 5 -44 10 -3 6 -4 5 -3 -2 2 -8
21 -14 49 -16 l47 -3 0 140 0 140 58 4 57 3 -62 2 -63 2 0 -140z"/>
<path d="M8230 4373 c0 -5 30 -7 67 -5 119 5 131 9 31 10 -54 1 -98 -1 -98 -5z"/>
<path d="M9001 4354 c-17 -14 -31 -30 -31 -34 0 -5 13 5 29 21 24 24 38 29 76
29 26 0 59 -7 75 -16 21 -13 31 -14 46 -5 18 11 17 11 -3 6 -14 -4 -32 0 -45
9 -37 26 -111 21 -147 -10z"/>
<path d="M10627 4373 c-4 -3 -6 -22 -6 -42 l2 -36 6 35 c6 33 9 35 51 41 l45
6 -46 1 c-25 1 -49 -1 -52 -5z"/>
<path d="M4841 4353 c7 -12 15 -20 18 -17 3 2 -3 12 -13 22 -17 16 -18 16 -5
-5z"/>
<path d="M5940 4365 c0 -5 5 -17 10 -25 5 -8 10 -10 10 -5 0 6 -5 17 -10 25
-5 8 -10 11 -10 5z"/>
<path d="M10745 4354 c9 -10 14 -26 11 -37 -4 -15 -2 -17 6 -9 13 13 -4 62
-22 62 -7 0 -4 -7 5 -16z"/>
<path d="M4210 4355 c0 -5 5 -17 10 -25 5 -8 10 -10 10 -5 0 6 -5 17 -10 25
-5 8 -10 11 -10 5z"/>
<path d="M5840 4333 c-26 -57 -42 -98 -35 -91 4 4 17 29 30 55 l22 48 16 -30
c9 -16 16 -26 17 -22 0 9 -29 67 -34 67 -1 0 -9 -12 -16 -27z"/>
<path d="M6991 4289 c-17 -40 -30 -74 -28 -76 2 -2 18 29 36 68 17 40 30 74
28 76 -2 2 -18 -29 -36 -68z"/>
<path d="M7092 4323 c-15 -48 -8 -55 8 -7 9 27 15 33 22 23 8 -12 9 -12 6 0
-8 29 -25 21 -36 -16z"/>
<path d="M7750 4349 c0 -5 4 -8 8 -5 5 3 14 -11 21 -30 7 -20 15 -34 17 -31 7
7 -26 77 -36 77 -6 0 -10 -5 -10 -11z"/>
<path d="M4363 4228 l-49 -123 -47 0 c-25 0 -42 -4 -38 -8 5 -5 27 -7 50 -5
l42 3 49 124 c27 69 48 126 46 128 -2 2 -26 -51 -53 -119z"/>
<path d="M7383 4270 c0 -41 2 -58 4 -37 2 20 2 54 0 75 -2 20 -4 3 -4 -38z"/>
<path d="M7736 4315 c-9 -26 -7 -32 5 -12 6 10 9 21 6 23 -2 3 -7 -2 -11 -11z"/>
<path d="M5972 4289 c6 -16 12 -28 14 -26 5 5 -13 57 -20 57 -3 0 0 -14 6 -31z"/>
<path d="M7142 4289 c6 -16 12 -28 14 -26 5 5 -13 57 -20 57 -3 0 0 -14 6 -31z"/>
<path d="M8230 4313 c0 -5 26 -7 57 -5 101 5 111 9 26 11 -46 0 -83 -2 -83 -6z"/>
<path d="M9997 4313 c18 -2 50 -2 70 0 21 2 7 4 -32 4 -38 0 -55 -2 -38 -4z"/>
<path d="M10841 4302 c0 -13 -13 -34 -27 -48 -14 -15 -20 -24 -13 -22 22 7 51
55 46 74 -4 16 -5 15 -6 -4z"/>
<path d="M4141 4308 c-1 -12 31 -89 35 -85 3 2 -4 24 -15 48 -11 24 -20 41
-20 37z"/>
<path d="M4839 4293 c-13 -16 -12 -17 4 -4 16 13 21 21 13 21 -2 0 -10 -8 -17
-17z"/>
<path d="M5727 4275 c-24 -50 -20 -58 4 -12 11 22 19 41 17 43 -3 2 -12 -12
-21 -31z"/>
<path d="M10112 4280 c0 -19 2 -27 5 -17 2 9 2 25 0 35 -3 9 -5 1 -5 -18z"/>
<path d="M10451 4277 c-1 -36 -2 -37 -33 -32 -17 3 -56 3 -85 -1 l-53 -6 0
-39 0 -39 103 2 102 2 -97 3 -98 4 0 29 0 30 80 0 c88 0 95 5 87 57 -3 23 -4
22 -6 -10z"/>
<path d="M4292 4271 c-6 -17 -9 -31 -6 -31 7 0 25 52 20 57 -2 2 -8 -10 -14
-26z"/>
<path d="M7622 4255 c-30 -62 -27 -71 4 -12 14 27 24 51 22 53 -3 2 -14 -17
-26 -41z"/>
<path d="M8391 4278 c-1 -28 -1 -28 -75 -28 -101 0 -106 -17 -6 -19 86 -2 96
4 87 51 -4 21 -4 20 -6 -4z"/>
<path d="M8962 4270 c0 -19 2 -27 5 -17 2 9 2 25 0 35 -3 9 -5 1 -5 -18z"/>
<path d="M6812 4270 c0 -14 2 -19 5 -12 2 6 2 18 0 25 -3 6 -5 1 -5 -13z"/>
<path d="M6902 4265 c0 -16 2 -22 5 -12 2 9 2 23 0 30 -3 6 -5 -1 -5 -18z"/>
<path d="M7881 4285 c0 -5 11 -30 24 -55 13 -25 24 -40 24 -35 0 6 -11 30 -24
55 -13 25 -24 41 -24 35z"/>
<path d="M10620 4278 c0 -4 24 -7 53 -7 54 1 49 5 -15 11 -21 2 -38 0 -38 -4z"/>
<path d="M4753 4273 c15 -2 37 -2 50 0 12 2 0 4 -28 4 -27 0 -38 -2 -22 -4z"/>
<path d="M5893 4258 c1 -15 6 -23 11 -18 4 4 4 16 -2 26 -9 16 -10 14 -9 -8z"/>
<path d="M7716 4265 c-3 -9 -6 -22 -5 -28 0 -7 5 -1 10 12 5 13 8 26 5 28 -2
2 -6 -3 -10 -12z"/>
<path d="M9129 4270 c-4 -8 -4 -30 -1 -49 4 -26 1 -37 -13 -47 -17 -13 -17
-14 -2 -14 10 0 20 6 23 14 7 19 0 114 -7 96z"/>
<path d="M9212 4208 c-2 -75 -3 -78 -32 -93 -17 -9 -56 -20 -88 -24 -44 -7
-49 -9 -21 -10 19 0 59 6 87 14 60 18 65 28 59 125 l-3 65 -2 -77z"/>
<path d="M7066 4253 c-6 -14 -5 -15 5 -6 7 7 10 15 7 18 -3 3 -9 -2 -12 -12z"/>
<path d="M7241 4265 c0 -5 8 -26 19 -45 11 -19 19 -30 19 -25 0 6 -8 26 -19
45 -11 19 -19 31 -19 25z"/>
<path d="M7803 4252 c0 -12 5 -22 9 -22 11 0 10 12 -2 30 -7 12 -9 10 -7 -8z"/>
<path d="M6004 4215 c17 -40 35 -73 36 -64 0 10 -40 99 -46 99 -2 0 2 -16 10
-35z"/>
<path d="M7130 4240 l-35 -7 38 -2 c20 0 37 4 37 9 0 6 -1 9 -2 9 -2 -1 -19
-5 -38 -9z"/>
<path d="M9947 4243 c-4 -3 -7 -24 -7 -45 l0 -38 95 0 95 0 0 -30 0 -29 -137
-4 -138 -3 143 -2 143 -2 -3 38 -3 37 -92 3 -93 3 0 29 0 30 78 0 c53 0 72 3
62 10 -17 11 -133 14 -143 3z"/>
<path d="M5301 4224 c0 -11 3 -14 6 -6 3 7 2 16 -1 19 -3 4 -6 -2 -5 -13z"/>
<path d="M5838 4233 c6 -2 18 -2 25 0 6 3 1 5 -13 5 -14 0 -19 -2 -12 -5z"/>
<path d="M7753 4233 c9 -2 23 -2 30 0 6 3 -1 5 -18 5 -16 0 -22 -2 -12 -5z"/>
<path d="M8883 4207 c7 -18 19 -42 27 -53 20 -28 80 -64 105 -64 12 1 4 6 -18
14 -51 19 -76 42 -99 94 -22 50 -32 56 -15 9z"/>
<path d="M4260 4221 c0 -5 5 -13 10 -16 6 -3 10 -2 10 4 0 5 -4 13 -10 16 -5
3 -10 2 -10 -4z"/>
<path d="M6887 4208 c-4 -14 -19 -41 -34 -60 -23 -27 -23 -30 -4 -13 27 24 54
72 48 88 -2 7 -7 0 -10 -15z"/>
<path d="M8970 4223 c0 -5 13 -22 29 -37 20 -19 36 -26 52 -23 23 4 22 4 -3 6
-16 0 -36 13 -52 32 -14 17 -26 27 -26 22z"/>
<path d="M9621 4188 c68 -89 80 -98 123 -96 l41 1 -44 6 c-40 5 -49 12 -90 68
-25 34 -50 62 -54 62 -5 1 6 -18 24 -41z"/>
<path d="M5692 4195 c-17 -37 -14 -45 4 -12 9 16 14 31 11 33 -2 2 -9 -7 -15
-21z"/>
<path d="M4181 4208 c-1 -12 31 -89 35 -85 3 2 -4 24 -15 48 -11 24 -20 41
-20 37z"/>
<path d="M4752 4201 c15 -3 44 -28 69 -58 l43 -53 55 2 56 1 -56 6 c-54 6 -59
9 -98 59 -33 41 -47 52 -69 51 l-27 -1 27 -7z"/>
<path d="M5522 4190 c-16 -26 -77 -27 -106 -2 -21 17 -21 17 -2 -5 25 -30 85
-31 111 -3 10 11 16 22 14 25 -3 2 -10 -5 -17 -15z"/>
<path d="M6779 4193 c-13 -16 -12 -17 4 -4 9 7 17 15 17 17 0 8 -8 3 -21 -13z"/>
<path d="M10626 4202 c-3 -5 8 -7 23 -4 25 3 34 -3 71 -52 42 -56 43 -56 96
-56 59 0 65 7 32 36 l-23 19 19 -22 19 -23 -50 0 c-49 0 -50 1 -89 55 -30 43
-45 55 -66 55 -15 0 -29 -4 -32 -8z"/>
<path d="M5311 4187 c-3 -69 133 -131 214 -97 12 5 -2 6 -37 3 -87 -9 -148 26
-171 97 -4 11 -6 10 -6 -3z"/>
<path d="M6931 4151 c-11 -27 -21 -52 -21 -55 0 -3 23 -6 50 -6 28 0 50 3 50
8 0 4 -21 6 -46 4 l-45 -4 16 38 c27 62 27 64 22 64 -2 0 -14 -22 -26 -49z"/>
<path d="M8142 4170 c0 -19 2 -27 5 -17 2 9 2 25 0 35 -3 9 -5 1 -5 -18z"/>
<path d="M4905 4170 c10 -11 20 -20 23 -20 3 0 -3 9 -13 20 -10 11 -20 20 -23
20 -3 0 3 -9 13 -20z"/>
<path d="M7381 4174 c0 -11 3 -14 6 -6 3 7 2 16 -1 19 -3 4 -6 -2 -5 -13z"/>
<path d="M7582 4165 c-17 -37 -14 -45 4 -12 9 16 14 31 11 33 -2 2 -9 -7 -15
-21z"/>
<path d="M10805 4170 c10 -11 20 -20 23 -20 3 0 -3 9 -13 20 -10 11 -20 20
-23 20 -3 0 3 -9 13 -20z"/>
<path d="M6690 4170 l-55 -7 50 -1 c28 -1 57 3 65 8 8 5 11 9 5 8 -5 -1 -35
-4 -65 -8z"/>
<path d="M7941 4152 c6 -18 15 -35 20 -38 5 -3 4 7 -3 23 -17 41 -30 53 -17
15z"/>
<path d="M5850 4163 c50 -2 88 -9 93 -16 6 -8 7 -8 4 3 -3 12 -22 15 -93 16
l-89 0 85 -3z"/>
<path d="M7020 4149 c-7 -11 -9 -23 -7 -26 3 -2 8 5 12 16 6 19 14 21 89 21
l82 0 17 -35 c15 -32 20 -35 62 -35 46 0 55 10 34 40 -8 12 -9 10 -4 -7 6 -21
3 -23 -32 -23 -35 0 -41 4 -56 35 l-17 35 -84 0 c-76 0 -86 -2 -96 -21z"/>
<path d="M7672 4158 c-5 -7 -13 -23 -16 -35 -6 -18 -16 -23 -59 -26 l-52 -3
53 -2 c52 -2 53 -1 68 33 l14 35 84 0 84 0 12 -35 c11 -34 12 -35 63 -33 l52
2 -46 3 c-41 4 -48 8 -62 38 l-17 35 -84 0 c-55 0 -87 -4 -94 -12z"/>
<path d="M8255 4164 c70 -8 173 -8 168 -1 -2 4 -48 6 -101 5 -53 0 -83 -3 -67
-4z"/>
<path d="M5662 4126 c-14 -31 -8 -36 45 -36 37 0 45 4 53 26 14 37 11 43 -6
12 -12 -23 -21 -28 -55 -28 -37 0 -39 1 -29 21 7 11 10 23 7 25 -2 2 -9 -7
-15 -20z"/>
<path d="M6045 4121 c7 -22 5 -23 -38 -20 -25 2 -43 1 -40 -3 2 -5 24 -8 49
-8 45 0 54 10 33 40 -8 12 -9 10 -4 -9z"/>
<path d="M6795 4110 c-16 -7 -17 -9 -3 -9 9 -1 20 4 23 9 7 11 7 11 -20 0z"/>
<path d="M8144 4108 c2 -10 39 -14 144 -16 131 -2 142 -1 141 15 0 11 -3 13
-6 6 -6 -16 -269 -19 -276 -3 -3 6 -4 5 -3 -2z"/>
</g>
</svg>
